HIERARCHY
ROOT SpineBase
{
  OFFSET 0.000000 0.000000 0.000000
  CHANNELS 6 Xposition Yposition Zposition Zrotation Xrotation Yrotation
  JOINT SpineMid
  {
    OFFSET 0.000000 27.161191 0.000000
    CHANNELS 3 Zrotation Xrotation Yrotation
    JOINT SpineShoulder
    {
      OFFSET -0.356299 20.229397 -0.622074
      CHANNELS 3 Zrotation Xrotation Yrotation
      JOINT Neck
      {
        OFFSET -0.139952 6.696640 -0.425628
        CHANNELS 3 Zrotation Xrotation Yrotation
        JOINT Head
        {
          OFFSET 2.415006 12.364808 0.408462
          CHANNELS 3 Zrotation Xrotation Yrotation
          End Site
          {
            OFFSET 0 0 0
          }
        }
      }
      JOINT ShoulderLeft
      {
        OFFSET -11.282852 -2.782571 -8.539547
        CHANNELS 3 Zrotation Xrotation Yrotation
        JOINT ElbowLeft
        {
          OFFSET -6.049253 -21.389027 -2.279654
          CHANNELS 3 Zrotation Xrotation Yrotation
          JOINT WristLeft
          {
            OFFSET -0.991919 -20.682356 -7.514125
            CHANNELS 3 Zrotation Xrotation Yrotation
            JOINT HandLeft
            {
              OFFSET -0.565797 -3.858415 -0.454646
              CHANNELS 3 Zrotation Xrotation Yrotation
              JOINT HandTipLeft
              {
                OFFSET 1.543111 -4.819162 -1.084458
                CHANNELS 3 Zrotation Xrotation Yrotation
                End Site
                {
                  OFFSET 0 0 0
                }
              }
              JOINT ThumbLeft
              {
                OFFSET 2.551428 -1.235888 -1.159531
                CHANNELS 3 Zrotation Xrotation Yrotation
                End Site
                {
                  OFFSET 0 0 0
                }
              }
            }
          }
        }
      }
      JOINT ShoulderRight
      {
        OFFSET 11.459538 -3.931280 2.972701
        CHANNELS 3 Zrotation Xrotation Yrotation
        JOINT ElbowRight
        {
          OFFSET 2.190601 -21.556161 3.340507
          CHANNELS 3 Zrotation Xrotation Yrotation
          JOINT WristRight
          {
            OFFSET 2.099935 -21.894111 -3.803713
            CHANNELS 3 Zrotation Xrotation Yrotation
            JOINT HandRight
            {
              OFFSET -0.772245 -9.295128 -1.658263
              CHANNELS 3 Zrotation Xrotation Yrotation
              JOINT HandTipRight
              {
                OFFSET -0.182830 -5.478033 -2.959005
                CHANNELS 3 Zrotation Xrotation Yrotation
                End Site
                {
                  OFFSET 0 0 0
                }
              }
              JOINT ThumbRight
              {
                OFFSET 0.480938 -0.560769 -3.424755
                CHANNELS 3 Zrotation Xrotation Yrotation
                End Site
                {
                  OFFSET 0 0 0
                }
              }
            }
          }
        }
      }
    }
  }
  JOINT HipLeft
  {
    OFFSET -5.400034 1.039538 -5.167539
    CHANNELS 3 Zrotation Xrotation Yrotation
    JOINT KneeLeft
    {
      OFFSET -6.717165 -28.520966 -2.005632
      CHANNELS 3 Zrotation Xrotation Yrotation
      JOINT AnkleLeft
      {
        OFFSET -6.937687 -29.974924 5.926187
        CHANNELS 3 Zrotation Xrotation Yrotation
        JOINT FootLeft
        {
          OFFSET 4.388410 -6.740491 -1.402674
          CHANNELS 3 Zrotation Xrotation Yrotation
          End Site
          {
            OFFSET 0 0 0
          }
        }
      }
    }
  }
  JOINT HipRight
  {
    OFFSET 5.144028 0.541828 -0.889646
    CHANNELS 3 Zrotation Xrotation Yrotation
    JOINT KneeRight
    {
      OFFSET -4.660052 -29.106716 2.489717
      CHANNELS 3 Zrotation Xrotation Yrotation
      JOINT AnkleRight
      {
        OFFSET -8.871945 -33.759517 3.881410
        CHANNELS 3 Zrotation Xrotation Yrotation
        JOINT FootRight
        {
          OFFSET 4.176400 -2.678701 -7.769104
          CHANNELS 3 Zrotation Xrotation Yrotation
          End Site
          {
            OFFSET 0 0 0
          }
        }
      }
    }
  }
}
MOTION
Frames: 16
Frame Time: 0.033333
11.920216 70.753571 362.939872 -0.000000 0.000000 -22.083175 0.000000 0.000000 22.083175 -0.000000 0.000000 0.000000 -0.000000 0.000000 0.000000 0.000000 0.000000 0.000000 -0.000000 0.000000 0.000000 -0.000000 0.000000 0.000000 -0.000000 0.000000 0.000000 -0.000000 0.000000 0.000000 0.000000 0.000000 0.000000 0.000000 0.000000 0.000000 -0.000000 0.000000 0.000000 -0.000000 0.000000 0.000000 -0.000000 0.000000 0.000000 -0.000000 0.000000 0.000000 0.000000 0.000000 0.000000 0.000000 0.000000 0.000000 0.000000 0.000000 22.083175 -0.000000 0.000000 0.000000 -0.000000 0.000000 0.000000 0.000000 0.000000 0.000000 0.000000 0.000000 22.083175 -0.000000 0.000000 0.000000 -0.000000 0.000000 0.000000 0.000000 0.000000 0.000000
11.461537 70.700558 363.164431 -0.712036 -0.030253 -21.495490 0.651432 0.289051 21.493659 -0.000000 0.000000 0.000000 -0.000000 0.000000 0.000000 0.000000 0.000000 0.000000 -0.000000 0.000000 0.000000 -0.457608 -0.792279 0.201556 2.743162 0.362669 -0.439292 -3.330224 1.733468 0.895053 0.000000 0.000000 0.000000 0.000000 0.000000 0.000000 -0.000000 0.000000 0.000000 -0.000000 0.000000 0.000000 -0.390664 -1.717305 0.207020 0.300524 -4.154511 0.021963 0.000000 0.000000 0.000000 0.000000 0.000000 0.000000 1.735160 0.213278 21.530158 -0.980295 0.468216 -0.037245 -1.936745 -0.039145 0.381142 0.000000 0.000000 0.000000 0.651432 0.289051 21.493659 0.828225 -0.939889 0.349358 -8.196998 -8.770047 8.111795 0.000000 0.000000 0.000000
11.056025 70.661241 363.363435 -1.291111 -0.054459 -20.952960 -0.002797 0.010922 20.912038 -0.025863 0.016374 -0.043574 1.315628 0.028799 0.083875 0.000000 0.000000 0.000000 1.315628 0.028799 0.083875 -0.841117 -1.481537 0.367370 4.720298 1.019111 -0.869303 -5.896807 2.757452 1.676864 0.000000 0.000000 0.000000 0.000000 0.000000 0.000000 0.713766 1.373450 0.135140 0.598854 -1.345992 -0.036865 -0.837547 -3.179612 0.392110 0.929103 -7.830209 -0.135056 0.000000 0.000000 0.000000 0.000000 0.000000 0.000000 3.169213 0.391931 20.997893 -0.449745 0.653957 0.237119 -4.779547 0.000706 0.297867 0.000000 0.000000 0.000000 1.848719 1.038820 20.966325 0.705751 -1.948474 0.619219 -14.797831 -18.080000 15.457505 0.000000 0.000000 0.000000
10.703681 70.635621 363.536883 -1.737240 -0.072619 -20.456319 -0.024514 0.000359 20.400103 -0.033244 -0.002464 -0.060161 1.859391 1.005374 -0.071242 0.000000 0.000000 0.000000 0.802009 -0.318580 0.326716 -0.158302 -1.667884 0.286459 6.194677 1.862000 -1.287868 -7.969054 3.211961 2.336737 0.000000 0.000000 0.000000 0.000000 0.000000 0.000000 0.893875 1.997740 0.188153 0.893489 -1.930680 -0.042555 -1.345619 -4.314238 0.551145 1.896097 -10.812218 -0.473584 0.000000 0.000000 0.000000 0.000000 0.000000 0.000000 4.303922 0.547100 20.492874 -0.660093 0.944664 0.305007 -6.322446 -0.285846 0.267871 0.000000 0.000000 0.000000 2.575716 1.414619 20.471661 0.871664 -2.606128 0.834561 -19.001998 -25.355004 21.010075 0.000000 0.000000 0.000000
10.404503 70.623696 363.684777 -2.050514 -0.084739 -20.006086 -0.059497 -0.020348 19.938140 -0.036646 -0.039446 -0.073511 2.076557 1.262758 -0.081451 0.000000 0.000000 0.000000 0.951158 -0.317787 0.387431 -0.170673 -2.057431 0.342455 7.306887 2.846300 -1.691419 -9.695584 3.163753 2.873157 0.000000 0.000000 0.000000 0.000000 0.000000 0.000000 0.955811 2.580504 0.230951 1.332694 -3.257672 -0.135703 -2.056495 -4.248883 0.812395 3.205900 -12.994199 -0.984739 0.000000 0.000000 0.000000 0.000000 0.000000 0.000000 5.141061 0.688987 20.019609 -0.861800 1.211206 0.340462 -7.348311 -0.760765 0.119037 0.000000 0.000000 0.000000 3.168414 1.703320 20.024008 0.898254 -3.045152 0.973929 -21.055059 -29.339831 24.595796 0.000000 0.000000 0.000000
10.158493 70.625468 363.807114 -2.231035 -0.090826 -19.602622 -0.107630 -0.050920 19.526575 -0.036007 -0.094602 -0.083666 2.090872 1.480366 -0.083787 0.000000 0.000000 0.000000 1.040434 -0.263180 0.424594 -0.154393 -2.348220 0.377484 8.137641 3.964726 -2.079578 -11.165540 2.634502 3.284872 0.000000 0.000000 0.000000 0.000000 0.000000 0.000000 0.899594 3.121884 0.263309 1.390652 -3.866112 -0.112050 -2.465606 -4.360060 0.901246 4.862624 -14.361301 -1.648203 0.000000 0.000000 0.000000 0.000000 0.000000 0.000000 5.682109 0.826681 19.581016 -1.055632 1.453940 0.344161 -7.878623 -1.427326 -0.146148 0.000000 0.000000 0.000000 3.625248 1.910425 19.625733 0.778539 -3.262748 1.031034 -21.471416 -29.930900 26.331472 0.000000 0.000000 0.000000
9.989034 70.624108 363.921339 -2.287721 -0.051694 -18.954523 -0.200730 -0.113341 18.873544 -0.077902 -0.211293 -0.096937 2.235280 1.605337 -0.070688 0.000000 0.000000 0.000000 1.235231 0.106721 0.370244 0.200407 -2.487403 0.323662 7.618590 5.775287 -2.280189 -10.784306 0.627009 3.225754 0.000000 0.000000 0.000000 0.000000 0.000000 0.000000 0.714323 3.821623 0.300704 1.242753 -4.654294 -0.057636 -3.359830 -3.210310 0.999236 8.714343 -15.234009 -3.060267 0.000000 0.000000 0.000000 0.000000 0.000000 0.000000 5.965141 0.890202 18.895969 -2.137641 1.497660 0.205048 -5.547677 -2.401460 -0.843009 0.000000 0.000000 0.000000 3.938572 1.900368 18.997650 0.454666 -3.089163 0.949453 -19.126329 -23.594083 27.331852 0.000000 0.000000 0.000000
9.886966 70.639497 364.001414 -2.134279 -0.034405 -18.465779 -0.295054 -0.166181 18.385982 -0.092405 -0.326902 -0.101232 1.669096 1.804581 -0.059380 0.000000 0.000000 0.000000 1.081208 0.343879 0.352804 0.698062 -2.618025 0.213814 7.075912 5.886134 -2.121901 -11.798535 1.138034 3.674998 0.000000 0.000000 0.000000 0.000000 0.000000 0.000000 0.338916 4.317854 0.308482 1.103014 -5.304669 -0.012527 -3.781587 -2.424796 1.080662 11.692184 -13.262360 -4.353742 0.000000 0.000000 0.000000 0.000000 0.000000 0.000000 5.814552 0.982588 18.358274 -2.197264 1.648862 0.166987 -5.424928 -1.750028 -0.093824 0.000000 0.000000 0.000000 4.021339 1.818165 18.534836 0.077008 -2.726154 0.807622 -17.066307 -19.241434 22.827273 0.000000 0.000000 0.000000
9.809996 70.693409 364.027583 -1.817205 -0.032468 -18.563703 -0.397533 -0.233553 18.488971 -0.049853 -0.438748 -0.096038 0.650889 1.774497 0.001582 0.000000 0.000000 0.000000 0.682992 0.307431 0.407252 0.811323 -2.506442 0.164460 7.662200 9.346000 -2.948811 -12.871129 -3.016224 3.542790 0.000000 0.000000 0.000000 0.000000 0.000000 0.000000 -0.133171 4.621404 0.294163 0.889406 -5.455390 0.056681 -3.735367 0.694344 0.941920 13.102942 -13.790579 -4.239614 0.000000 0.000000 0.000000 0.000000 0.000000 0.000000 5.270982 1.144538 18.396344 -0.794093 2.065852 0.269481 -7.103930 -4.176782 -1.389429 0.000000 0.000000 0.000000 4.039635 1.845740 18.657869 -0.624128 -2.154797 0.563932 -11.953850 -9.136806 17.826714 0.000000 0.000000 0.000000
9.721614 70.795379 363.984110 -1.491026 -0.027916 -18.715618 -0.445705 -0.286287 18.648170 0.020044 -0.512386 -0.084656 -0.524839 1.693044 0.063165 0.000000 0.000000 0.000000 0.543430 0.435091 0.361728 0.242856 -2.147491 0.308053 9.966864 10.219658 -3.733766 -14.780031 -5.302297 3.285999 0.000000 0.000000 0.000000 0.000000 0.000000 0.000000 -0.657451 4.789649 0.266924 0.786434 -5.446423 0.121373 -4.027105 2.782278 0.916813 14.559111 -13.592173 -4.284998 0.000000 0.000000 0.000000 0.000000 0.000000 0.000000 4.719413 1.353319 18.474834 -0.426337 2.028603 0.311460 -6.939800 -5.669757 -2.284378 0.000000 0.000000 0.000000 4.135103 1.805455 18.854721 -1.122168 -1.815026 0.428817 -9.920198 -5.623195 15.794122 0.000000 0.000000 0.000000
9.604904 70.894536 363.948546 -1.242481 -0.054724 -18.846167 -0.482641 -0.279296 18.785563 0.032214 -0.517641 -0.076017 -1.276416 1.891368 0.047246 0.000000 0.000000 0.000000 0.739020 0.416880 0.308436 -0.569458 -2.058551 0.479928 12.381881 8.604585 -3.977850 -18.640301 -3.953827 3.699130 0.000000 0.000000 0.000000 0.000000 0.000000 0.000000 -0.897774 4.548817 0.220930 0.653744 -4.939065 0.195588 -3.354536 1.900387 0.757972 14.031587 -15.172257 -4.179197 0.000000 0.000000 0.000000 0.000000 0.000000 0.000000 4.341826 1.596784 18.531247 0.064335 1.831566 0.446020 -7.424840 -6.902362 -3.171186 0.000000 0.000000 0.000000 4.090693 1.957392 18.982647 -1.429446 -1.736609 0.363522 -9.124598 -4.824404 14.425146 0.000000 0.000000 0.000000
9.480044 70.982114 363.930622 -1.011784 -0.083875 -18.976335 -0.524287 -0.304597 18.920631 0.014278 -0.513484 -0.070366 -1.826110 2.198357 0.016220 0.000000 0.000000 0.000000 1.591395 0.718156 0.106199 -1.740645 -2.246060 0.710587 14.135418 8.344519 -4.327378 -19.933632 -3.669484 3.848026 0.000000 0.000000 0.000000 0.000000 0.000000 0.000000 -0.891259 4.141642 0.176845 0.456020 -3.879152 0.287942 -2.944890 1.562325 0.562514 12.776118 -13.276861 -3.837290 0.000000 0.000000 0.000000 0.000000 0.000000 0.000000 3.997237 1.897964 18.572879 0.508163 1.474510 0.628119 -8.211490 -13.154334 -7.807428 0.000000 0.000000 0.000000 3.734544 2.329450 19.041067 -1.532735 -2.019069 0.378729 -9.448737 -6.658040 13.230570 0.000000 0.000000 0.000000
9.364359 71.059657 363.960597 -0.918895 -0.099917 -19.044109 -0.684472 -0.218600 18.990935 -0.049796 -0.440469 -0.072824 -1.577600 2.202088 -0.031607 0.000000 0.000000 0.000000 1.686352 0.527113 0.110446 -2.207056 -2.114761 0.867641 16.104151 7.463572 -4.602198 -20.532114 -4.047109 3.490191 0.000000 0.000000 0.000000 0.000000 0.000000 0.000000 -0.733477 3.420723 0.114369 1.028053 -2.608510 0.342777 -3.286701 -1.026162 0.574658 11.771367 -13.793237 -3.790458 0.000000 0.000000 0.000000 0.000000 0.000000 0.000000 4.022719 1.959843 18.620552 0.655681 1.539643 0.675185 -7.920520 -12.833014 -7.578079 0.000000 0.000000 0.000000 3.232273 2.853772 18.987470 -0.734497 -3.079420 0.711975 -12.679000 -11.580130 14.790464 0.000000 0.000000 0.000000
9.291964 71.126538 363.990668 -0.679250 -0.193207 -19.798049 -0.701678 -0.289729 19.747965 -0.075061 -0.504951 -0.069759 -1.784930 2.722586 -0.078007 0.000000 0.000000 0.000000 1.511675 0.735965 0.101770 -1.696697 -2.760989 0.713757 15.117590 10.118896 -5.018028 -19.146943 -7.181383 2.758394 0.000000 0.000000 0.000000 0.000000 0.000000 0.000000 -0.852458 3.195173 0.067471 2.363219 -2.459272 0.166149 -4.568660 0.000511 0.812757 11.627431 -14.519368 -3.543377 0.000000 0.000000 0.000000 0.000000 0.000000 0.000000 3.518008 2.313727 19.294758 1.571972 1.374421 0.876648 -2.515244 -6.157972 -3.531789 0.000000 0.000000 0.000000 2.203437 3.741760 19.548577 0.403634 -4.659897 1.221778 -16.384615 -15.715220 22.281079 0.000000 0.000000 0.000000
9.214505 71.224468 364.008111 -0.465449 -0.258250 -20.302593 -0.605019 -0.484567 20.253858 -0.062152 -0.582178 -0.063304 -2.097157 3.379824 -0.114816 0.000000 0.000000 0.000000 2.227245 1.292014 -0.089880 -2.092404 -3.391413 0.694251 15.976816 6.536478 -4.178667 -20.340228 -5.860575 2.114496 0.000000 0.000000 0.000000 0.000000 0.000000 0.000000 -1.480039 2.949449 -0.047705 2.744294 -1.856630 0.279757 -3.943904 -0.687277 0.735984 11.494153 -11.686154 -4.008690 0.000000 0.000000 0.000000 0.000000 0.000000 0.000000 3.189555 2.571345 19.735941 3.154359 0.873122 1.347659 -3.554278 3.308792 1.646760 0.000000 0.000000 0.000000 1.155217 4.627977 19.862791 1.717594 -6.406667 1.850688 -21.400945 -25.954901 27.799835 0.000000 0.000000 0.000000
9.080042 71.266945 364.187109 -0.473743 -0.654075 -21.026162 -0.385832 -0.415081 20.977810 -0.009522 -0.732481 -0.057361 -2.065077 4.273463 -0.172921 0.000000 0.000000 0.000000 2.221482 2.610391 -0.369547 -1.256719 -4.996155 0.612004 14.573408 7.567898 -3.983141 -18.275614 -3.634697 2.639674 0.000000 0.000000 0.000000 0.000000 0.000000 0.000000 -2.190428 2.488607 -0.209109 4.179678 -1.428544 0.219688 -4.675451 -0.665124 0.993747 12.170361 -10.189411 -4.643306 0.000000 0.000000 0.000000 0.000000 0.000000 0.000000 2.833441 3.506138 20.300809 4.702429 -0.701316 2.177979 -10.409475 14.897041 9.320507 0.000000 0.000000 0.000000 0.255703 6.317663 20.363149 2.913547 -8.467895 2.597248 -23.631502 -29.015396 26.844053 0.000000 0.000000 0.000000
